<?xml version="1.0" encoding="UTF-8"?>
<svg width="172px" height="40px" viewBox="0 0 172 40" version="1.1" xmlns="http://www.w3.org/2000/svg" xmlns:xlink="http://www.w3.org/1999/xlink">
    <!-- Generator: Sketch 41.2 (35397) - http://www.bohemiancoding.com/sketch -->
    <title>Combined Shape</title>
    <desc>Created with Sketch.</desc>
    <defs></defs>
    <g id="Page-1" stroke="none" stroke-width="1" fill="none" fill-rule="evenodd">
        <path d="M0,3.0065012 C0,1.34605644 1.33892944,0 2.9973705,0 L27.2547303,0 C28.9101324,0 30.2521008,1.34230941 30.2521008,3.0065012 L30.2521008,36.9934988 C30.2521008,38.6539436 28.9131714,40 27.2547303,40 L2.9973705,40 C1.34196848,40 0,38.6576906 0,36.9934988 L0,3.0065012 Z M2.01680672,3.00041944 C2.01680672,2.44790304 2.47187767,2 3.01258696,2 L27.2395139,2 C27.7894681,2 28.2352941,2.45517302 28.2352941,3.00041944 L28.2352941,36.9995806 C28.2352941,37.552097 27.7802232,38 27.2395139,38 L3.01258696,38 C2.46263272,38 2.01680672,37.544827 2.01680672,36.9995806 L2.01680672,3.00041944 Z M35.2941176,3.0065012 C35.2941176,1.34605644 36.6330471,0 38.2914881,0 L62.548848,0 C64.20425,0 65.5462185,1.34230941 65.5462185,3.0065012 L65.5462185,36.9934988 C65.5462185,38.6539436 64.207289,40 62.548848,40 L38.2914881,40 C36.6360861,40 35.2941176,38.6576906 35.2941176,36.9934988 L35.2941176,3.0065012 Z M37.3109244,3.00041944 C37.3109244,2.44790304 37.7659953,2 38.3067046,2 L62.5336315,2 C63.0835858,2 63.5294118,2.45517302 63.5294118,3.00041944 L63.5294118,36.9995806 C63.5294118,37.552097 63.0743408,38 62.5336315,38 L38.3067046,38 C37.7567504,38 37.3109244,37.544827 37.3109244,36.9995806 L37.3109244,3.00041944 Z M70.5882353,3.0065012 C70.5882353,1.34605644 71.9271647,0 73.5856058,0 L97.8429656,0 C99.4983677,0 100.840336,1.34230941 100.840336,3.0065012 L100.840336,36.9934988 C100.840336,38.6539436 99.5014067,40 97.8429656,40 L73.5856058,40 C71.9302038,40 70.5882353,38.6576906 70.5882353,36.9934988 L70.5882353,3.0065012 Z M105.882353,3.0065012 C105.882353,1.34605644 107.221282,0 108.879723,0 L133.137083,0 C134.792485,0 136.134454,1.34230941 136.134454,3.0065012 L136.134454,36.9934988 C136.134454,38.6539436 134.795524,40 133.137083,40 L108.879723,40 C107.224321,40 105.882353,38.6576906 105.882353,36.9934988 L105.882353,3.0065012 Z M107.89916,3.00041944 C107.89916,2.44790304 108.354231,2 108.89494,2 L133.121867,2 C133.671821,2 134.117647,2.45517302 134.117647,3.00041944 L134.117647,36.9995806 C134.117647,37.552097 133.662576,38 133.121867,38 L108.89494,38 C108.344986,38 107.89916,37.544827 107.89916,36.9995806 L107.89916,3.00041944 Z M141.176471,3.0065012 C141.176471,1.34605644 142.5154,0 144.173841,0 L168.431201,0 C170.086603,0 171.428571,1.34230941 171.428571,3.0065012 L171.428571,36.9934988 C171.428571,38.6539436 170.089642,40 168.431201,40 L144.173841,40 C142.518439,40 141.176471,38.6576906 141.176471,36.9934988 L141.176471,3.0065012 Z M143.193277,3.00041944 C143.193277,2.44790304 143.648348,2 144.189058,2 L168.415984,2 C168.965939,2 169.411765,2.45517302 169.411765,3.00041944 L169.411765,36.9995806 C169.411765,37.552097 168.956694,38 168.415984,38 L144.189058,38 C143.639103,38 143.193277,37.544827 143.193277,36.9995806 L143.193277,3.00041944 Z" id="Combined-Shape" fill="#FFFFFF"></path>
    </g>
</svg>